<?xml version="1.0" encoding="UTF-8" standalone="no"?>
<!-- Svg Vector Icons : http://www.onlinewebfonts.com/icon -->

<svg
   version="1.1"
   x="0px"
   y="0px"
   viewBox="0 0 1000000 1000000"
   xml:space="preserve"
   id="svg138"
   sodipodi:docname="20927f00418f60cc455bec2e81d5b9c3.svg"
   inkscape:version="1.2.1 (9c6d41e4, 2022-07-14)"
   width="1000000"
   height="1000000"
   xmlns:inkscape="http://www.inkscape.org/namespaces/inkscape"
   xmlns:sodipodi="http://sodipodi.sourceforge.net/DTD/sodipodi-0.dtd"
   xmlns="http://www.w3.org/2000/svg"
   xmlns:svg="http://www.w3.org/2000/svg"><defs
   id="defs142" /><sodipodi:namedview
   id="namedview140"
   borderopacity="1.0"
   inkscape:showpageshadow="2"
   inkscape:pageopacity="0.0"
   inkscape:pagecheckerboard="0"
   inkscape:deskcolor="#d1d1d1"
   showgrid="false"
   inkscape:zoom="1.027"
   inkscape:cx="500.97371"
   inkscape:cy="500.97371"
   inkscape:window-width="1390"
   inkscape:window-height="1027"
   inkscape:window-x="0"
   inkscape:window-y="481"
   inkscape:window-maximized="0"
   inkscape:current-layer="svg138" />
<metadata
   id="metadata132"> Svg Vector Icons : http://www.onlinewebfonts.com/icon </metadata>
<g
   id="g136" fill="none" 
   transform="rotate(-90,500.14944,500.05)"
   style="display:inline"><path fill="none" 
     d="m 576.7,854.8 v 0 c 8.9,7.4 17.7,12.3 28.9,12.3 19.2,0 34.8,-15.6 34.8,-34.8 C 640.4,814.8 630.3,810 610.7,798 531,717.9 481.3,607.7 481.3,485.6 481.3,365.8 529,257.3 606.1,177.4 v 0 c 8.3,-7.5 34.2,-21.1 34.2,-40.3 0,-19.2 -15.6,-34.8 -34.8,-34.8 -19.2,0 -43.3,24 -49,31.6 v 0 0 c -87,91.1 -140.7,214.5 -140.7,350.6 0,146.1 62,277.8 160.9,370.3 z M 789.4,719.9 v 0 c 15.1,7.5 22.4,5.6 30.4,4.8 C 837.1,723 847,709.2 847,690 847,671.3 835,668.4 813.9,651.7 770.3,609.4 743,550.4 743,484.9 c 0,-63.8 26,-121.2 67.5,-163.3 22.8,-14.6 36.7,-15.4 36.7,-34.6 0,-19.2 -15.6,-34.8 -34.8,-34.8 -16,0 -29.8,5.2 -42.1,16.6 v 0 c -57.5,54.6 -93.6,131.5 -93.6,217.1 0,94.8 44.1,179.1 112.7,234 z M 313.5,964.6 c 8.7,14 20.4,25.4 36.7,25.4 19.2,0 31.8,-14.4 31.8,-33.6 0,-12.9 -6.3,-20.3 -15.5,-31.8 v 0 C 276.3,806.4 222.6,658.8 222.6,498.6 222.6,337 277.3,188.2 369,69.5 c 5.4,-6.3 8.8,-14.4 8.8,-23.4 0,-19.9 -16.1,-36 -36,-36 -15.8,0 -29.1,10.2 -33.9,24.3 -97,128.4 -154.8,288 -154.8,461.3 -0.3,176.7 59.8,339.3 160.4,468.9 z"
     id="path134"
     style="display:inline;opacity:1" /></g>
</svg>
